<svg width="153" height="44" viewBox="0 0 153 44" fill="none" xmlns="http://www.w3.org/2000/svg">
<rect x="0.5" y="1.02393" width="151.776" height="41.5768" rx="20.7884" stroke="white"/>
<rect x="3.3844" y="3.49194" width="146.007" height="36.6408" rx="18.3204" fill="white"/>
<path d="M38.9878 25.0123C38.9878 19.8523 31.4678 22.0923 31.4678 18.4923C31.4678 16.9923 32.6478 16.2123 34.1478 16.2523C35.8478 16.2723 36.7278 17.3323 36.8478 18.2723H38.8478C38.6278 16.1523 36.8878 14.6923 34.2278 14.6923C31.4678 14.6923 29.6078 16.2523 29.6078 18.5523C29.6078 23.7323 37.1478 21.3323 37.1478 25.0923C37.1478 26.4123 36.1078 27.4123 34.3478 27.4123C32.4078 27.4123 31.5878 26.2523 31.4678 25.0923H29.5278C29.5678 27.3923 31.5478 28.9523 34.3478 28.9523C37.3678 28.9523 38.9878 26.9923 38.9878 25.0123ZM46.3261 19.2123C48.2061 19.2123 49.8061 20.3923 49.7861 22.5323H42.8661C43.0661 20.3923 44.5461 19.2123 46.3261 19.2123ZM51.4461 25.4323H49.4861C49.0861 26.6123 48.0461 27.4523 46.4061 27.4523C44.5461 27.4523 42.9861 26.2323 42.8461 24.0123H51.6061C51.6461 23.6323 51.6661 23.3123 51.6661 22.9123C51.6661 19.9123 49.5861 17.6723 46.4061 17.6723C43.2061 17.6723 40.9861 19.8523 40.9861 23.3123C40.9861 26.7923 43.2861 28.9923 46.4061 28.9923C49.1261 28.9923 50.8861 27.4323 51.4461 25.4323ZM58.7284 19.2123C60.6084 19.2123 62.2084 20.3923 62.1884 22.5323H55.2684C55.4684 20.3923 56.9484 19.2123 58.7284 19.2123ZM63.8484 25.4323H61.8884C61.4884 26.6123 60.4484 27.4523 58.8084 27.4523C56.9484 27.4523 55.3884 26.2323 55.2484 24.0123H64.0084C64.0484 23.6323 64.0684 23.3123 64.0684 22.9123C64.0684 19.9123 61.9884 17.6723 58.8084 17.6723C55.6084 17.6723 53.3884 19.8523 53.3884 23.3123C53.3884 26.7923 55.6884 28.9923 58.8084 28.9923C61.5284 28.9923 63.2884 27.4323 63.8484 25.4323ZM87.6228 28.8123H89.4228V22.3523C89.4228 19.2123 87.4828 17.6523 84.9828 17.6523C83.3028 17.6523 81.7428 18.5123 81.1028 20.0923C80.3828 18.4523 78.8828 17.6523 77.0828 17.6523C75.6428 17.6523 74.3428 18.2723 73.6228 19.4323V17.8523H71.8028V28.8123H73.6228V22.7723C73.6228 20.4123 74.8828 19.2323 76.7228 19.2323C78.5228 19.2323 79.7228 20.3723 79.7228 22.6123V28.8123H81.5228V22.7723C81.5228 20.4123 82.7828 19.2323 84.6228 19.2323C86.4228 19.2323 87.6228 20.3723 87.6228 22.6123V28.8123ZM102.808 23.3123C102.808 19.8523 100.388 17.6723 97.2683 17.6723C94.1683 17.6723 91.7283 19.8523 91.7283 23.3123C91.7283 26.7923 94.0883 28.9923 97.1883 28.9923C100.308 28.9923 102.808 26.7923 102.808 23.3123ZM93.5883 23.3123C93.5883 20.5523 95.3283 19.2523 97.2483 19.2523C99.1283 19.2523 100.948 20.5523 100.948 23.3123C100.948 26.0923 99.0883 27.3923 97.1883 27.3923C95.2883 27.3923 93.5883 26.0923 93.5883 23.3123ZM107.021 22.8523C107.021 20.3123 108.341 19.5323 110.081 19.5323H110.561V17.6523C108.821 17.6523 107.641 18.4123 107.021 19.6323V17.8523H105.201V28.8123H107.021V22.8523ZM117.322 19.2123C119.202 19.2123 120.802 20.3923 120.782 22.5323H113.862C114.062 20.3923 115.542 19.2123 117.322 19.2123ZM122.442 25.4323H120.482C120.082 26.6123 119.042 27.4523 117.402 27.4523C115.542 27.4523 113.982 26.2323 113.842 24.0123H122.602C122.642 23.6323 122.662 23.3123 122.662 22.9123C122.662 19.9123 120.582 17.6723 117.402 17.6723C114.202 17.6723 111.982 19.8523 111.982 23.3123C111.982 26.7923 114.282 28.9923 117.402 28.9923C120.122 28.9923 121.882 27.4323 122.442 25.4323Z" fill="black"/>
</svg>
